<svg version="1.1" xmlns="http://www.w3.org/2000/svg" xmlns:xlink="http://www.w3.org/1999/xlink" x="0px" y="0px" viewBox="0 0 79.227 80" enable-background="new 0 0 79.227 80" xml:space="preserve">
<path fill="#FF3657" d="M76.006,31.837L47.39,3.221c-4.296-4.295-11.259-4.294-15.552,0L3.222,31.837
	c-4.296,4.295-4.296,11.259,0,15.552l28.616,28.616c4.295,4.296,11.257,4.296,15.552,0l28.616-28.616
	C80.299,43.096,80.301,36.132,76.006,31.837z M19.083,57.031L6.332,44.279c-2.577-2.578-2.577-6.754,0-9.333l6.532-6.533
	l9.332,9.332l-1.866,1.866l8.086,8.087L19.083,57.031z M44.279,72.895c-2.578,2.576-6.754,2.576-9.332,0L22.195,60.143l9.331-9.332
	l8.087,8.088l4.977-4.978L15.975,25.306L34.947,6.332c2.576-2.576,6.754-2.577,9.332,0l12.752,12.752l-9.33,9.331l-8.088-8.086
	l-4.977,4.978l28.616,28.615L44.279,72.895z M66.363,50.811l-9.332-9.332l1.867-1.866l-8.088-8.087l9.332-9.331l12.752,12.752
	c2.578,2.578,2.576,6.756,0,9.333L66.363,50.811z"/>
</svg>
