<?xml version="1.0" encoding="utf-8"?>
<!-- Generator: Adobe Illustrator 16.0.3, SVG Export Plug-In . SVG Version: 6.00 Build 0)  -->
<!DOCTYPE svg PUBLIC "-//W3C//DTD SVG 1.1//EN" "http://www.w3.org/Graphics/SVG/1.1/DTD/svg11.dtd">
<svg version="1.1" id="Layer_1" xmlns="http://www.w3.org/2000/svg" xmlns:xlink="http://www.w3.org/1999/xlink" x="0px" y="0px"
	 width="512px" height="512px" viewBox="0 0 512 512" enable-background="new 0 0 512 512" xml:space="preserve">
<symbol  id="Mike" viewBox="-147.132 -211.152 294.264 422.305">
	<g>
		<path fill="#C3C3C3" stroke="#333333" stroke-miterlimit="10" d="M-44.006-38.234c0,0,5.736-23,6.236-54.5s-23-39.25-67-61.75
			s-39.75-53.168-39.75-53.168h289.027c0,0,4.25,30.668-39.75,53.168s-67.5,30.25-67,61.75s6.234,54.5,6.234,54.5H-44.006z"/>
		<path fill="#EABEB7" stroke="#333333" stroke-width="4" stroke-miterlimit="10" d="M-44.006-38.234c0,0,5.736-23,6.236-54.5
			s-13-39.25-57-61.75s-39.75-53.168-39.75-53.168h269.027c0,0,4.25,30.668-39.75,53.168s-57.5,30.25-57,61.75
			s6.234,54.5,6.234,54.5H-44.006z"/>
		<path fill="#FFFFFF" stroke="#333333" stroke-width="5" stroke-miterlimit="10" d="M-6.445-134.484c0,0-0.543,0.002-0.979-0.25
			l-3.551,23.5c-13.715,1.979-21.881,10.26-26.901,13.559c-1.501-28.239-24.798-36.285-66.894-57.809
			c-44-22.5-39.75-53.168-39.75-53.168h289.041c0,0,4.25,30.668-39.75,53.168c-42.096,21.522-65.393,29.568-66.895,57.809
			c-5.019-3.299-13.868-10.444-27.583-12.425l-2.868-24.634c-0.436,0.252-0.979,0.25-0.979,0.25
			C5.32-134.484-5.32-134.484-6.445-134.484z"/>
		
			<path fill="#F4D0C3" stroke="#333333" stroke-width="5" stroke-linecap="round" stroke-linejoin="round" stroke-miterlimit="10" d="
			M105.244,33.92c-11.75,0-16.854-11.213-16.854-11.213c2.008,26.151,1.873,56.902-1.646,86.337
			C78.453,178.346-0.131,165.71-0.131,165.71s-79.875,2.834-86.875-56.666c-3.537-30.063-3.342-62.296-1.041-89.186
			c0,0-5.709,14.062-17.459,14.062s-19.625-21.249-15-39c0,0,11.125-39.624,34.875-39.624c3.327,0,6.658-0.021,9.832,6.251
			c10.627-18.76,34.818-40.751,75.668-40.751c40.834,0,65.295,21.836,75.682,40.72c3.17-6.238,6.494-6.22,9.818-6.22
			c23.75,0,34.875,39.624,34.875,39.624C124.869,12.671,116.994,33.92,105.244,33.92z"/>
		<path fill="#AACDE2" d="M29.024-118.234l-18.35,11.416l-2.609-23.416l0.755-1c-3.409,0-14.103,0-17.579,0l0.757,1l-2.611,23.416
			l-18.551-6.729c-7-2.063-10.26-4.987-20.697-13.706c7.477-15.874,23.998-28.563,23.998-28.563l7.34,11.689
			c-0.539-1.627-0.866-3.127-0.866-4.278c0-4.723,8.112-18.161,8.112-18.161c-3.389-11.906-7.605-25.552-10.691-39.574
			c4.879,0,37.214,0.02,44.054,0.02c-3.086,13.996-7.366,27.673-10.749,39.554c0,0,8.113,13.438,8.113,18.161
			c0,1.151-0.325,2.651-0.863,4.278l7.338-11.689c0,0,16.197,13.143,23.887,28.598C39.186-117.363,38.587-118.86,29.024-118.234z"/>
		
			<line fill="none" stroke="#333333" stroke-linecap="round" stroke-linejoin="round" stroke-miterlimit="10" x1="38.208" y1="-80.65" x2="37.759" y2="-96.756"/>
		
			<line fill="none" stroke="#333333" stroke-linecap="round" stroke-linejoin="round" stroke-miterlimit="10" x1="-38.217" y1="-80.65" x2="-37.842" y2="-96.69"/>
		<path fill="#7C3708" stroke="#333333" stroke-width="5" stroke-miterlimit="10" d="M-89.629,77.077
			c-0.872-12.203-0.064-49.563-0.064-49.563s-3.487,6.243-12.766,6.931c-1.438,5.938-7.895,23.625-6.33,49.813"/>
		<path fill="#981F2C" stroke="#333333" stroke-width="3" stroke-miterlimit="10" d="M11.324-134.976c0,0,7.25,1.794,9.788,5.558
			c2.239-5.064,3.957-8.946,3.957-8.946s-5.101-4.372-10.761-4.788C13.949-141.369,11.324-134.976,11.324-134.976z"/>
		<path fill="#FFFFFF" stroke="#333333" stroke-width="5" stroke-miterlimit="10" d="M11.324-106.234l16.602-38.584
			c0,0,25.166,24.75,29.582,41.418C55.775-82.984,40.816-80.9,38.9-80.65c-0.289-6-1.143-16.168-1.143-16.168"/>
		<path fill="none" stroke="#333333" stroke-width="5" stroke-linecap="round" stroke-linejoin="round" stroke-miterlimit="10" d="
			M7.425-133.734l3.25,27.916c26.582,3.834,33.582,14.834,33.582,14.834"/>
		<path fill="#DDAFAB" d="M-87.527,2.371c0,0-1.729,4.145-7.604,4.145s-8.75-7.5-5.875-15.25s5.75-13.75,12.375-13.75
			c4.586,0,4.434,5.512,4.434,5.512"/>
		<g>
			<path fill="#333333" d="M-89.729,4.675c0,0-0.281,0.132-0.803,0.293c-0.265,0.07-0.577,0.17-0.943,0.248
				c-0.363,0.089-0.777,0.159-1.229,0.207c-0.448,0.055-0.94,0.064-1.445,0.061c-0.511-0.03-1.035-0.033-1.572-0.141
				c-0.537-0.047-1.073-0.245-1.613-0.354c-0.531-0.181-1.065-0.361-1.576-0.598c-0.499-0.287-1.008-0.498-1.441-0.88
				c-0.435-0.373-0.892-0.626-1.312-0.962c-0.431-0.308-0.893-0.527-1.348-0.743c-0.433-0.254-0.869-0.469-1.297-0.649
				c-0.435-0.173-0.831-0.354-1.194-0.515c-0.367-0.153-0.704-0.28-0.999-0.373c-0.584-0.189-0.981-0.262-0.981-0.262l-0.014-0.003
				c-0.132-0.022-0.259,0.064-0.282,0.197c-0.004,0.022-0.005,0.049-0.002,0.072c0,0,0.048,0.382,0.242,0.984
				c0.094,0.307,0.23,0.66,0.405,1.06c0.167,0.406,0.392,0.84,0.71,1.256c0.303,0.43,0.659,0.878,1.064,1.325
				c0.422,0.433,0.94,0.823,1.493,1.188c0.537,0.384,1.25,0.568,1.904,0.808c0.652,0.251,1.397,0.344,2.07,0.542
				c0.696,0.152,1.412,0.239,2.102,0.312c0.704,0.016,1.386,0.051,2.044-0.054c0.657-0.055,1.278-0.188,1.854-0.34
				c0.571-0.17,1.101-0.349,1.566-0.559c0.47-0.201,0.883-0.412,1.236-0.622c0.358-0.196,0.648-0.406,0.883-0.578
				c0.231-0.18,0.41-0.321,0.529-0.432c0.122-0.104,0.174-0.16,0.174-0.16l0.009-0.009c0.076-0.082,0.07-0.21-0.012-0.286
				C-89.567,4.651-89.657,4.641-89.729,4.675z"/>
		</g>
		<g>
			<path fill="#333333" d="M-87.881,2.371c0,0-0.363,0.688-1.331,1.54c-0.957,0.852-2.606,1.747-4.741,1.915
				c-0.506,0.059-1.136,0.044-1.612,0.015c-0.301-0.038-0.608-0.076-0.919-0.115c-0.247-0.076-0.499-0.155-0.753-0.234
				c-1.051-0.398-1.994-1.188-2.694-2.219c-0.709-1.035-1.135-2.319-1.374-3.658c-0.233-1.346-0.234-2.765-0.06-4.162
				c0.144-1.411,0.545-2.773,1.008-4.114c0.517-1.396,0.985-2.73,1.513-4.019c0.529-1.277,1.072-2.49,1.659-3.595
				c0.592-1.102,1.248-2.069,1.933-2.897c0.685-0.836,1.46-1.441,2.18-1.942c0.751-0.443,1.461-0.77,2.079-0.95
				c0.313-0.086,0.592-0.163,0.834-0.23c0.25-0.04,0.463-0.074,0.636-0.103c0.349-0.056,0.536-0.085,0.536-0.085
				s-0.188-0.008-0.542-0.022c-0.179-0.007-0.399-0.018-0.659-0.027c-0.259,0.022-0.557,0.051-0.891,0.08
				c-0.668,0.081-1.476,0.282-2.357,0.665c-0.851,0.423-1.81,0.984-2.646,1.822c-0.85,0.815-1.679,1.801-2.387,2.93
				c-0.715,1.122-1.396,2.347-1.99,3.651c-0.588,1.297-1.195,2.664-1.706,4.041c-0.524,1.439-1.002,2.97-1.185,4.553
				c-0.173,1.58-0.15,3.194,0.147,4.759c0.289,1.563,0.908,3.069,1.842,4.328c0.925,1.27,2.255,2.205,3.663,2.609
				c0.372,0.086,0.742,0.166,1.097,0.23c0.313,0.012,0.622,0.022,0.926,0.033c0.735-0.027,1.283-0.085,1.887-0.212
				c1.169-0.222,2.195-0.648,3.008-1.157c0.821-0.502,1.422-1.093,1.852-1.613c0.433-0.521,0.679-0.992,0.836-1.311
				C-87.938,2.552-87.881,2.371-87.881,2.371z"/>
		</g>
		<path fill="#DDAFAB" d="M87.514,2.371c0,0,1.73,4.145,7.605,4.145s8.75-7.5,5.875-15.25s-5.75-13.75-12.375-13.75
			c-4.588,0-4.438,5.512-4.438,5.512"/>
		<g>
			<path fill="#333333" d="M87.514,2.371c0,0,0.055,0.181,0.209,0.504c0.157,0.317,0.403,0.79,0.836,1.311
				c0.43,0.521,1.03,1.111,1.852,1.613c0.813,0.509,1.838,0.937,3.008,1.157c0.604,0.127,1.152,0.185,1.887,0.212
				c0.303-0.011,0.612-0.021,0.926-0.033c0.355-0.064,0.725-0.146,1.097-0.23c1.408-0.404,2.738-1.341,3.663-2.609
				c0.934-1.259,1.553-2.765,1.841-4.328c0.297-1.563,0.321-3.179,0.147-4.759c-0.183-1.583-0.661-3.112-1.185-4.553
				c-0.511-1.377-1.118-2.744-1.706-4.041c-0.594-1.306-1.274-2.529-1.99-3.651c-0.708-1.129-1.537-2.113-2.387-2.93
				c-0.837-0.838-1.796-1.399-2.646-1.822c-0.881-0.383-1.689-0.584-2.358-0.665c-0.334-0.029-0.631-0.058-0.891-0.08
				c-0.259,0.011-0.479,0.021-0.658,0.027c-0.353,0.016-0.542,0.022-0.542,0.022s0.187,0.029,0.536,0.085
				c0.173,0.027,0.386,0.063,0.636,0.103c0.243,0.066,0.521,0.146,0.834,0.23c0.618,0.182,1.328,0.507,2.079,0.95
				c0.72,0.501,1.495,1.106,2.179,1.942c0.685,0.828,1.341,1.797,1.934,2.897c0.587,1.104,1.13,2.316,1.659,3.595
				c0.527,1.287,0.996,2.623,1.513,4.019c0.463,1.341,0.864,2.703,1.008,4.114c0.175,1.397,0.173,2.816-0.06,4.162
				c-0.238,1.339-0.665,2.623-1.374,3.658c-0.701,1.031-1.643,1.819-2.694,2.219c-0.254,0.079-0.506,0.158-0.753,0.234
				c-0.312,0.039-0.618,0.077-0.919,0.115c-0.474,0.03-1.104,0.045-1.611-0.014c-2.134-0.168-3.784-1.063-4.74-1.915
				C87.875,3.059,87.514,2.371,87.514,2.371z"/>
		</g>
		<g>
			<path fill="#333333" d="M89.485,5.004c0,0,0.052,0.057,0.174,0.16c0.119,0.109,0.298,0.252,0.529,0.432
				c0.235,0.172,0.526,0.381,0.884,0.578c0.353,0.21,0.766,0.421,1.236,0.622c0.466,0.21,0.996,0.389,1.566,0.56
				c0.577,0.151,1.198,0.284,1.854,0.339c0.659,0.104,1.341,0.068,2.045,0.054c0.69-0.07,1.406-0.157,2.102-0.31
				c0.674-0.2,1.419-0.292,2.072-0.542c0.654-0.24,1.366-0.425,1.904-0.809c0.553-0.364,1.07-0.756,1.493-1.188
				c0.404-0.448,0.76-0.896,1.064-1.326c0.319-0.416,0.544-0.85,0.711-1.255c0.175-0.399,0.312-0.754,0.406-1.06
				c0.194-0.604,0.242-0.985,0.242-0.985c0.017-0.135-0.078-0.256-0.211-0.271C107.533,0,107.507,0,107.484,0.005l-0.015,0.003
				c0,0-0.397,0.071-0.981,0.262c-0.296,0.094-0.632,0.22-0.999,0.373c-0.364,0.159-0.76,0.343-1.195,0.515
				c-0.428,0.182-0.864,0.396-1.297,0.649c-0.455,0.217-0.917,0.437-1.348,0.743c-0.42,0.337-0.877,0.589-1.312,0.963
				c-0.434,0.381-0.943,0.593-1.441,0.88c-0.511,0.234-1.045,0.417-1.577,0.597c-0.54,0.109-1.076,0.309-1.613,0.354
				c-0.538,0.106-1.062,0.109-1.573,0.141c-0.505,0.005-0.998-0.006-1.445-0.062c-0.452-0.047-0.866-0.117-1.229-0.206
				c-0.367-0.078-0.679-0.178-0.943-0.249c-0.523-0.16-0.804-0.292-0.804-0.292c-0.101-0.048-0.222-0.004-0.27,0.097
				c-0.036,0.077-0.02,0.166,0.034,0.225L89.485,5.004z"/>
		</g>
		<path fill="#99440A" stroke="#333333" stroke-width="3" stroke-miterlimit="10" d="M103.205,155.1c0,0,3.686,0.938,4.375-2
			c0.686-2.936-7.863-6.934-18.932-5.653C91.891,150.539,99.33,154.164,103.205,155.1z"/>
		<path fill="#99440A" stroke="#333333" stroke-width="3" stroke-miterlimit="10" d="M88.647,147.445
			c0,0,9.742,10.469,11.492,29.094c0,4.499-2.811,6.062-6.25,0C90.455,170.476,87.716,165.915,88.647,147.445z"/>
		<path fill="#6E3405" d="M34.587,82.516c8.885-0.518,26.313-5.876,33.688-16.25c1.688-2.438,0.875-8.126-4.688-4.563
			c-5.563,3.563-19.375,13.749-33.938,13.749C25.524,75.451,21.649,82.516,34.587,82.516z"/>
		<g>
			<path fill="#333333" d="M59.88,25.047c0,0-0.261,0.787-0.616,2.172c-0.087,0.347-0.185,0.729-0.29,1.146
				c-0.143,0.388-0.296,0.808-0.46,1.255c-0.158,0.436-0.326,0.896-0.502,1.383c-0.206,0.474-0.469,0.959-0.711,1.461
				c-0.246,0.503-0.465,1.036-0.831,1.507c-0.348,0.476-0.607,1.021-1.012,1.479c-0.42,0.441-0.777,0.944-1.221,1.383
				c-0.496,0.388-0.907,0.866-1.436,1.231c-1.048,0.731-2.154,1.439-3.433,1.909c-1.253,0.492-2.595,0.896-3.982,1.086
				c-1.396,0.238-2.698,0.278-4.052,0.143c-1.357-0.144-2.699-0.43-3.932-0.854c-0.641-0.172-1.196-0.484-1.793-0.706
				c-0.536-0.312-1.131-0.543-1.61-0.902c-0.254-0.166-0.505-0.329-0.752-0.491c-0.252-0.159-0.448-0.373-0.681-0.546
				c-0.226-0.186-0.449-0.365-0.667-0.541c-0.203-0.194-0.38-0.406-0.577-0.6c-0.813-0.748-1.365-1.622-1.954-2.356
				c-0.453-0.804-0.967-1.491-1.266-2.117c-0.594-1.252-1.002-1.999-1.002-1.999s-0.027,0.81,0.048,2.281
				c0.047,0.731,0.251,1.602,0.46,2.633c0.342,0.975,0.68,2.146,1.38,3.276c0.161,0.291,0.327,0.592,0.513,0.885
				c0.21,0.278,0.424,0.562,0.641,0.851c0.419,0.603,0.957,1.127,1.517,1.672c0.27,0.288,0.569,0.547,0.893,0.778
				c0.32,0.244,0.643,0.491,0.97,0.74c0.691,0.429,1.404,0.896,2.179,1.237c1.533,0.742,3.212,1.293,4.983,1.565
				c1.772,0.318,3.709,0.27,5.477-0.009c1.786-0.28,3.54-0.815,5.168-1.597c0.404-0.2,0.806-0.402,1.207-0.604
				c0.377-0.248,0.751-0.494,1.125-0.74c0.765-0.452,1.396-1.098,2.045-1.661c0.631-0.59,1.147-1.279,1.675-1.91
				c0.478-0.672,0.868-1.382,1.258-2.051c0.373-0.678,0.592-1.399,0.858-2.064c0.281-0.66,0.412-1.334,0.534-1.976
				c0.112-0.646,0.267-1.24,0.317-1.83c0.018-0.593,0.035-1.152,0.051-1.681c0.007-0.52,0.041-1.002,0.013-1.438
				c-0.059-0.426-0.112-0.817-0.161-1.171C60.052,25.859,59.88,25.047,59.88,25.047z"/>
		</g>
		<path fill="#6E3405" d="M-32.144,72.806c0.99,0.273,6.709,2.706-0.75,4.042C-40.351,78.182-61.435,71.1-69.101,63.1
			c-2.043-2.084-3.584-5.21,2.332-2.96C-60.851,62.39-40.601,70.474-32.144,72.806z"/>
		<g>
			<path fill="#333333" d="M-27.521,29.727c0,0-0.093,0.194-0.269,0.562c-0.171,0.358-0.4,0.924-0.741,1.565
				c-0.307,0.658-0.764,1.412-1.248,2.273c-0.542,0.829-1.166,1.732-1.94,2.595c-0.738,0.894-1.683,1.686-2.702,2.405
				c-1.022,0.724-2.209,1.275-3.487,1.671c-1.282,0.396-2.665,0.614-4.11,0.693l-1.097,0.008l-0.138,0.001h-0.069l-0.017,0.001
				c-0.11-0.002,0.132,0.003,0.099,0.003l-0.039-0.004l-0.313-0.022l-0.626-0.035c-0.914-0.016-1.496-0.171-2.168-0.263
				c-1.382-0.291-2.777-0.693-4.01-1.337c-1.22-0.659-2.407-1.389-3.374-2.35c-0.541-0.422-0.924-0.988-1.406-1.454
				c-0.407-0.531-0.822-1.05-1.184-1.593c-0.716-1.094-1.324-2.211-1.808-3.3c-0.229-0.55-0.481-1.072-0.67-1.592
				c-0.187-0.525-0.364-1.024-0.53-1.494c-0.302-0.951-0.549-1.809-0.76-2.519c-0.329-1.432-0.577-2.277-0.577-2.277
				s-0.19,0.834-0.416,2.346c-0.059,0.753-0.158,1.682-0.156,2.755c0.024,0.538,0.049,1.11,0.076,1.716
				c0.037,0.607,0.168,1.236,0.258,1.906c0.235,1.327,0.642,2.76,1.262,4.232c0.305,0.735,0.725,1.452,1.132,2.199
				c0.485,0.701,0.937,1.461,1.556,2.119c1.134,1.401,2.637,2.596,4.284,3.565c1.658,0.998,3.521,1.575,5.418,1.991
				c0.993,0.143,2.069,0.302,2.836,0.294l0.627,0.023l0.313,0.006l0.039,0.001l0.138,0.002l0.022-0.001l0.087-0.005l0.176-0.011
				c0.466-0.028,0.931-0.058,1.394-0.085c1.856-0.192,3.689-0.658,5.349-1.402c1.662-0.733,3.146-1.751,4.305-2.926
				c1.153-1.177,2.078-2.421,2.683-3.669c0.342-0.604,0.555-1.23,0.794-1.8c0.197-0.589,0.351-1.15,0.506-1.67
				c0.112-0.532,0.228-1.021,0.303-1.48c0.071-0.461,0.102-0.896,0.146-1.273c0.108-0.761,0.042-1.348,0.063-1.753
				C-27.519,29.942-27.521,29.727-27.521,29.727z"/>
		</g>
		<path fill="#7C3708" stroke="#333333" stroke-width="5" stroke-miterlimit="10" d="M88.856,147.182c0,0-16.867,3.9-26.582,0.265
			c4.666-7.831,27.406-38.931,27.406-119.931c7.179,4.184,10.926,7.138,16.344,6.886C110.024,82.444,104.149,114.64,88.856,147.182z
			"/>
		<path fill="none" stroke="#333333" stroke-width="2" stroke-linecap="round" stroke-linejoin="round" stroke-miterlimit="10" d="
			M41.649-24.546c0,0,2-2.188,3.313-3.314"/>
		<path fill="none" stroke="#333333" stroke-width="2" stroke-linecap="round" stroke-linejoin="round" stroke-miterlimit="10" d="
			M-41.226-35.732c0,0,3.063,2.624,3.563,3.624"/>
		<path fill="none" stroke="#333333" stroke-width="2" stroke-linecap="round" stroke-linejoin="round" stroke-miterlimit="10" d="
			M-38.913-33.921c0,0,50.563-16.665,82.219,7.636"/>
		<path fill="#EABEB7" d="M9.453-54.461c0-1.035-4.066-1.873-9.084-1.873c-5.02,0-9.086,0.838-9.086,1.873
			c0,1.038,4.066,1.875,9.086,1.875C5.387-52.586,9.453-53.423,9.453-54.461z"/>
		<path fill="#EABEB7" d="M0.369-17.068c-2.439,0-9.07,3.262-11.996,7.5h-1.422c0-6,10.25-11.5,13.418-11.5
			c3.166,0,13.416,5.5,13.416,11.5h-1.423C9.438-13.808,2.807-17.068,0.369-17.068z"/>
		<g>
			<path fill="#333333" d="M-13.049-5.568c0,0,0.036-0.148,0.103-0.428c0.063-0.28,0.196-0.66,0.376-1.139
				c0.39-0.947,1.13-2.185,2.311-3.396c0.589-0.604,1.288-1.195,2.052-1.777c0.776-0.57,1.65-1.091,2.57-1.572
				c1.839-0.939,3.993-1.672,5.992-1.688c1.009,0.002,2.007,0.199,3.041,0.51c1.017,0.312,2.005,0.729,2.933,1.202
				c0.919,0.487,1.796,1.007,2.574,1.575c0.768,0.58,1.468,1.17,2.063,1.771c1.188,1.205,1.938,2.434,2.333,3.378
				c0.183,0.474,0.318,0.865,0.381,1.14c0.067,0.276,0.104,0.425,0.104,0.425s0.024-0.151,0.068-0.437
				c0.032-0.285,0.07-0.714,0.028-1.265c-0.08-1.091-0.499-2.694-1.561-4.308c-1.026-1.631-2.633-3.255-4.649-4.578
				c-1.017-0.647-2.131-1.239-3.356-1.667c-1.198-0.44-2.577-0.73-3.966-0.746c-2.82,0.051-5.288,1.105-7.32,2.395
				c-2.021,1.322-3.625,2.954-4.642,4.592c-1.052,1.619-1.459,3.226-1.535,4.314c-0.042,0.546-0.003,0.985,0.03,1.266
				C-13.074-5.721-13.049-5.568-13.049-5.568z"/>
		</g>
		<path fill="#EABEB7" d="M-56.07-21.964c0.693-5.277-1.783-9.957-5.535-10.449c-3.754-0.496-7.357,3.382-8.051,8.659
			c-0.695,5.278,1.783,9.958,5.533,10.453C-60.372-12.812-56.767-16.687-56.07-21.964z"/>
		<path fill="#EABEB7" d="M56.807-21.964c-0.694-5.277,1.783-9.954,5.535-10.449c3.752-0.496,7.357,3.382,8.049,8.659
			c0.697,5.278-1.779,9.958-5.531,10.453C61.106-12.808,57.5-16.687,56.807-21.964z"/>
		<path fill="#981F2C" stroke="#333333" stroke-width="3" stroke-miterlimit="10" d="M-11.659-134.976c0,0-7.25,1.794-9.789,5.558
			c-2.24-5.064-3.959-8.946-3.959-8.946s5.103-4.372,10.762-4.788C-14.284-141.369-11.659-134.976-11.659-134.976z"/>
		<path fill="#E42E44" stroke="#333333" stroke-width="3" stroke-miterlimit="10" d="M-6.275-162.568
			c-3.834-13.467-8.726-30.48-11.845-46.084c10.121,0,20.121-0.032,36.148-0.032c-3.12,15.61-8.016,32.64-11.852,46.116"/>
		<path fill="#ECB4A5" d="M60.531,145.504c-17.193,0.089-47.608,4.842-80.027-13.948c-64.701-37.5-65.492-29.958-67.587-57.208
			c-0.063-5.139,0,0-0.063-5.139c20.359-1.919,53.21,3.335,94.571,40.431c23.603,21.167,39.118,30.967,53.828,34.605
			C60.531,145.504,61.252,144.245,60.531,145.504z"/>
		<path fill="#662407" d="M88.08,145.306c0,0-5.792,2.581-22.548,2.479c1.011-2.485,0,0,1.011-2.485
			C73.45,146.354,80.374,146.173,88.08,145.306z"/>
		<path fill="#662407" d="M-92.28,74.848c0.178,4.35-12.784,10.635-14.188,5.063c-0.468-1.857,0.017-3.714-0.16-6.021
			c2.841-1.201,6.972-2.771,14.146-3.981C-92.28,74.848-92.482,69.907-92.28,74.848z"/>
		<path fill="#99440A" stroke="#333333" stroke-width="5" stroke-miterlimit="10" d="M88.856,147.182
			c0,0-14.166,46.164-97.832,33.498c-83.668-12.665-83,19-84,26.5c-8.668-4.832-43.168-24.998-43.168-67.665
			s30.834-62.667,49.5-62.667c18.668,0,51.5,8.164,90.834,39.832S63.19,152.182,88.856,147.182z"/>
		
			<path fill="#FFFFFF" stroke="#333333" stroke-width="2" stroke-linecap="round" stroke-linejoin="round" stroke-miterlimit="10" d="
			M-27.433,25.976c0-9.122-7.396-16.516-16.518-16.516c-9.121,0-16.516,7.394-16.516,16.516c0,9.124,7.395,16.519,16.516,16.519
			C-34.828,42.493-27.433,35.1-27.433,25.976z"/>
		
			<path fill="#FFFFFF" stroke="#333333" stroke-width="2" stroke-linecap="round" stroke-linejoin="round" stroke-miterlimit="10" d="
			M59.889,25.822c0-9.095-7.373-16.465-16.466-16.465c-9.092,0-16.464,7.37-16.464,16.465c0,9.093,7.373,16.465,16.464,16.465
			C52.516,42.287,59.889,34.915,59.889,25.822z"/>
		<path d="M-34.4,24.905c0-4.089-3.315-7.405-7.404-7.405c-4.089,0-7.404,3.316-7.404,7.405s3.315,7.401,7.404,7.401
			C-37.715,32.307-34.4,28.994-34.4,24.905z"/>
		<path d="M48.826,24.755c0-4.078-3.305-7.381-7.381-7.381c-4.076,0-7.381,3.303-7.381,7.381c0,4.075,3.305,7.38,7.381,7.38
			C45.521,32.135,48.826,28.83,48.826,24.755z"/>
		<path fill="#FFFFFF" d="M48.826,28.516c0-2-1.621-3.618-3.62-3.618s-3.619,1.618-3.619,3.618c0,1.999,1.62,3.619,3.619,3.619
			S48.826,30.515,48.826,28.516z"/>
		<path fill="#FFFFFF" d="M-33.543,28.68c0-2.008-1.626-3.633-3.631-3.633c-2.006,0-3.631,1.625-3.631,3.633
			c0,2.004,1.625,3.628,3.631,3.628C-35.169,32.308-33.543,30.684-33.543,28.68z"/>
		<path fill="#C1560E" d="M-100.29,170.776c0,0,2.578-29.833,71.328-15.313c68.752,14.521,75.23,7.115,75.23,7.115
			s-30.093-3.081-68.965-21.668C-57.717,124.166-121.459,114.555-100.29,170.776"/>
		<path fill="#FFFFFF" stroke="#333333" stroke-width="5" stroke-miterlimit="10" d="M-11.771-106.234l-16.602-38.584
			c0,0-25.166,24.75-29.582,41.418c1.732,20.416,16.691,22.5,18.607,22.75c0.288-6,1.143-16.168,1.143-16.168"/>
		<path fill="none" stroke="#333333" stroke-width="5" stroke-linecap="round" stroke-linejoin="round" stroke-miterlimit="10" d="
			M-7.872-133.734l-3.25,27.916c-26.582,3.834-33.582,14.834-33.582,14.834"/>
		<path fill="#F93556" stroke="#333333" stroke-width="3" stroke-miterlimit="10" d="M-5.823-129.234
			c-3.094,0-8.565-10.04-8.565-15.173s5.095-18.411,9.471-18.411c1.397,0,8.454,0,9.848,0c4.377,0,9.472,13.278,9.472,18.411
			s-5.472,15.173-8.563,15.173C4.818-129.234-4.805-129.234-5.823-129.234z"/>
	</g>
</symbol>
<g id="Grid" display="none">
	
		<circle display="inline" opacity="0.3" fill="none" stroke="#000000" stroke-miterlimit="10" enable-background="new    " cx="255.999" cy="256" r="256"/>
	
		<circle display="inline" opacity="0.3" fill="none" stroke="#000000" stroke-miterlimit="10" enable-background="new    " cx="255.999" cy="256" r="180"/>
	
		<rect x="74.983" y="74.984" transform="matrix(-0.7071 0.7071 -0.7071 -0.7071 618.032 256)" display="inline" opacity="0.3" fill="none" stroke="#000000" stroke-miterlimit="10" enable-background="new    " width="362.028" height="362.028"/>
	<path display="inline" opacity="0.3" fill="none" stroke="#000000" stroke-miterlimit="10" enable-background="new    " d="
		M75.999,256c0,99.408,80.589,180,180,180s180-80.592,180-180V0h-360V256z"/>
</g>
<use xlink:href="#Mike"  width="294.264" height="422.305" x="-147.132" y="-211.152" transform="matrix(1.1362 0 0 -1.1362 266.0027 295.4485)" overflow="visible"/>
</svg>
