<svg version="1.1" id="Layer_1" xmlns="http://www.w3.org/2000/svg" xmlns:xlink="http://www.w3.org/1999/xlink" x="0px" y="0px"
	 width="512px" height="512px" viewBox="0 0 512 512" enable-background="new 0 0 512 512" xml:space="preserve">
<g id="Grid" display="none">
	
		<circle display="inline" opacity="0.3" fill="none" stroke="#000000" stroke-miterlimit="10" enable-background="new    " cx="255.999" cy="256" r="256"/>
	
		<circle display="inline" opacity="0.3" fill="none" stroke="#000000" stroke-miterlimit="10" enable-background="new    " cx="255.999" cy="256" r="180"/>
	
		<rect x="74.979" y="74.982" transform="matrix(-0.7071 0.7071 -0.7071 -0.7071 618.0326 256.0023)" display="inline" opacity="0.3" fill="none" stroke="#000000" stroke-miterlimit="10" enable-background="new    " width="362.035" height="362.036"/>
	<path display="inline" opacity="0.3" fill="none" stroke="#000000" stroke-miterlimit="10" enable-background="new    " d="
		M75.999,256c0,99.41,80.589,180,180,180s180-80.59,180-180V0h-360V256z"/>
</g>
<path fill="#9B9B9B" d="M413.622,502.46c-4.605-10.875-15.478-26.589-41.12-39.702c-5.389-2.755-10.436-5.278-15.316-7.72
	c-20.766-10.384-36.14-18.083-45.715-27.771c4.565-6.563,8.445-13.411,10.039-19.43l0.097-0.366l-0.032-0.377
	c-1.483-17.483-11.958-25.326-21.569-26.935c0.146-2.229,0.315-4.393,0.497-6.498c21.531-9.814,33.504-25.159,38.832-33.714
	c3.592,4.803,7.496,4.803,10.782,4.803c27.522,0,40.032-43.428,40.562-45.315c3.52-13.508,0.951-29.446-6.245-38.759
	c-2.705-3.501-5.861-5.723-9.257-6.573c3.958-49.405-1.357-85.01-18.236-121.84c0.485,0.017,0.972,0.042,1.452,0.042
	c7.413,0,14.271-2.118,16.676-5.149c0.962-1.21,0.973-2.28,0.813-2.966c-0.503-2.143-2.211-3.372-4.685-3.372
	c-0.934,0-1.655,0.176-1.722,0.193c-2.669,0.646-6.693,2.357-10.306,4.373c3.301-5.489,7.4-14.49,8.539-26.613l0.006-0.123
	c0-4.206-1.946-5.698-3.614-5.698c-1.897,0-3.823,1.699-5.728,5.053l-0.151,0.269c-3.244,5.726-5.908,10.434-5.995,24.308
	c-2.298-3.69-5.819-8.285-11.067-12.886c-10.523-9.224-30.325-20.218-64.908-20.218c-9.479,0-19.732,0.824-30.471,2.45
	c-14.176,2.146-26.919,3.234-37.875,3.234c-0.003,0-0.005,0-0.008,0c-48.945,0-51.223-21.236-52.081-29.231
	c-0.054-0.502-0.103-0.956-0.155-1.349l-0.423-3.18l-2.802,1.562c-18.192,10.138-48.712,33.559-48.712,76.505
	c0,31.483,14.443,51.455,30.107,62.005c-1.269,24.554,3.729,42.318,6.158,50.919c0.133,0.472,0.257,0.912,0.375,1.335
	c-0.227-0.008-0.449-0.025-0.68-0.025c-4.589,0-8.878,2.412-12.404,6.975c-7.197,9.313-9.765,25.25-6.235,38.795
	c0.519,1.849,13.03,45.276,40.624,45.276c3.239,0,7.146,0,10.746-4.852c5.225,8.316,14.016,19.01,28.077,27.845
	c3.53,2.218,7.202,4.178,10.997,5.908c0.18,2.087,0.346,4.23,0.492,6.438c-9.739,1.427-20.537,9.233-22.046,27.005l-0.032,0.378
	l0.098,0.366c1.619,6.108,5.591,13.07,10.246,19.723c-9.594,9.551-24.87,17.198-45.427,27.478c-4.881,2.441-9.929,4.965-15.318,7.72
	c-25.642,13.113-36.513,28.827-41.118,39.702c-5.068,11.971-3.924,20.788-3.873,21.157l0.261,1.883h322.466l0.26-1.883
	C417.546,523.248,418.69,514.431,413.622,502.46z"/>
</svg>
