<?xml version="1.0" encoding="utf-8"?>
<!-- Generator: Adobe Illustrator 16.0.3, SVG Export Plug-In . SVG Version: 6.00 Build 0)  -->
<!DOCTYPE svg PUBLIC "-//W3C//DTD SVG 1.1//EN" "http://www.w3.org/Graphics/SVG/1.1/DTD/svg11.dtd">
<svg version="1.1" id="Layer_1" xmlns="http://www.w3.org/2000/svg" x="0px" y="0px"
     width="300px" height="80px" viewBox="0 0 300 80" enable-background="new 0 0 300 80"
     xml:space="preserve">
<g>
	<path fill="#FF3657" d="M76.006,31.837L47.39,3.221c-4.296-4.295-11.259-4.294-15.552,0L3.222,31.837
		c-4.296,4.295-4.296,11.258,0,15.552l28.616,28.616c4.295,4.296,11.257,4.296,15.552,0l28.616-28.616
		C80.299,43.096,80.301,36.132,76.006,31.837z M19.083,57.031L6.332,44.279c-2.577-2.578-2.577-6.754,0-9.332l6.532-6.533
		l9.332,9.332l-1.866,1.866l8.086,8.087L19.083,57.031z M44.279,72.894c-2.578,2.577-6.754,2.577-9.332,0L22.195,60.142l9.331-9.331
		l8.087,8.088l4.977-4.978L15.975,25.306L34.947,6.332c2.576-2.576,6.754-2.577,9.332,0l12.752,12.752l-9.33,9.331l-8.088-8.086
		l-4.977,4.978l28.616,28.615L44.279,72.894z M66.363,50.811l-9.332-9.332l1.867-1.866l-8.088-8.087l9.332-9.331l12.752,12.752
		c2.578,2.578,2.576,6.756,0,9.332L66.363,50.811z"/>
	<g>
		<path fill="#333333" d="M103.287,50.987V42.4c0-0.674-0.104-1.112-0.309-1.318c-0.206-0.207-0.645-0.309-1.318-0.309h-4.154
			c-3.404,0-5.107-1.664-5.107-4.995v-9.261c0-3.292,1.74-4.939,5.221-4.939h5.5c3.48,0,5.22,1.647,5.22,4.939v5.163h-5.108v-4.377
			c0-0.674-0.111-1.113-0.336-1.319c-0.225-0.204-0.674-0.308-1.348-0.308H99.19c-0.674,0-1.122,0.104-1.347,0.308
			c-0.225,0.207-0.338,0.646-0.338,1.319v7.801c0,0.674,0.113,1.114,0.338,1.32s0.673,0.308,1.347,0.308h4.097
			c3.441,0,5.164,1.647,5.164,4.938v10.104c0,3.293-1.76,4.939-5.275,4.939H97.73c-3.479,0-5.219-1.646-5.219-4.939v-5.164h5.107
			v4.378c0,0.674,0.111,1.114,0.336,1.319s0.674,0.309,1.348,0.309h2.357c0.673,0,1.112-0.104,1.318-0.309
			C103.184,52.102,103.287,51.661,103.287,50.987z"/>
		<path fill="#333333" d="M113.895,21.578h5.051v35.135h-5.051V21.578z"/>
		<path fill="#333333" d="M130.283,52.615h8.699v4.098H125.23V21.578h5.053V52.615z"/>
		<path fill="#333333" d="M147.232,52.615h10.158v4.098h-15.266V21.578h14.874v4.098h-9.766v10.832h8.081v4.096h-8.081V52.615z"/>
		<path fill="#333333" d="M173.891,21.578h4.658v35.135h-5.107l-7.408-25.37v25.37h-4.658V21.578h5.332l7.184,24.639V21.578z"/>
		<path fill="#333333" d="M198.584,21.578v4.098h-5.893v31.038h-5.051V25.675h-5.893v-4.098H198.584z"/>
		<path fill="#333333" d="M215.029,52.615h10.158v4.098h-15.266V21.578h14.873v4.098h-9.766v10.832h8.082v4.096h-8.082V52.615z"/>
		<path fill="#333333" d="M229.621,21.578h5.051v35.135h-5.051V21.578z"/>
		<path fill="#333333" d="M257.121,31.849h-5.107V27.19c0-0.673-0.111-1.113-0.336-1.318c-0.225-0.207-0.674-0.31-1.348-0.31h-2.861
			c-0.674,0-1.123,0.103-1.348,0.31c-0.225,0.205-0.336,0.645-0.336,1.318v23.965c0,0.675,0.111,1.113,0.336,1.319
			c0.225,0.207,0.674,0.309,1.348,0.309h2.861c0.674,0,1.123-0.102,1.348-0.309c0.225-0.206,0.336-0.645,0.336-1.319v-8.587h-2.805
			V38.64h7.912v13.133c0,3.33-1.738,4.994-5.219,4.994h-6.006c-3.48,0-5.219-1.664-5.219-4.994V26.517
			c0-3.292,1.738-4.939,5.219-4.939h6.006c3.48,0,5.219,1.647,5.219,4.939V31.849z"/>
		<path fill="#333333" d="M274.912,21.578h5.053v35.135h-5.053V41.277h-7.465v15.436h-5.051V21.578h5.051v15.604h7.465V21.578z"/>
		<path fill="#333333" d="M300,21.578v4.098h-5.893v31.038h-5.052V25.675h-5.894v-4.098H300z"/>
	</g>
</g>
</svg>
