<?xml version="1.0" encoding="UTF-8" standalone="no"?><!DOCTYPE svg PUBLIC "-//W3C//DTD SVG 1.1//EN" "http://www.w3.org/Graphics/SVG/1.1/DTD/svg11.dtd"><svg width="100%" height="100%" viewBox="0 0 24 24" version="1.1" xmlns="http://www.w3.org/2000/svg" xmlns:xlink="http://www.w3.org/1999/xlink" xml:space="preserve" xmlns:serif="http://www.serif.com/" style="fill-rule:evenodd;clip-rule:evenodd;stroke-linejoin:round;stroke-miterlimit:1.41421;"><path d="M12,0c6.623,0 12,5.377 12,12c0,6.623 -5.377,12 -12,12c-6.623,0 -12,-5.377 -12,-12c0,-6.623 5.377,-12 12,-12Zm6.819,8.935l-1.311,-1.311c-0.241,-0.241 -0.632,-0.241 -0.874,0l-6.818,6.819l-2.45,-2.45c-0.242,-0.24 -0.632,-0.241 -0.874,0l-1.311,1.311c-0.241,0.242 -0.241,0.633 0,0.874l2.886,2.887l0,0l1.312,1.311c0.241,0.241 0.632,0.241 0.874,-0.001l8.566,-8.566c0.241,-0.241 0.241,-0.632 0,-0.874Z" style="fill:#00e660;fill-opacity:0.901961;"/></svg>