<?xml version="1.0" encoding="utf-8"?>
<!-- Generator: Adobe Illustrator 16.0.3, SVG Export Plug-In . SVG Version: 6.00 Build 0)  -->
<!DOCTYPE svg PUBLIC "-//W3C//DTD SVG 1.1//EN" "http://www.w3.org/Graphics/SVG/1.1/DTD/svg11.dtd">
<svg version="1.1" id="Layer_1" xmlns="http://www.w3.org/2000/svg" xmlns:xlink="http://www.w3.org/1999/xlink" x="0px" y="0px"
	 width="24px" height="24px" viewBox="0 0 24 24" enable-background="new 0 0 24 24" xml:space="preserve">
<path d="M20.517,16.243L16.273,12l4.243-4.243c1.171-1.171,1.171-3.071-0.001-4.243c-1.17-1.171-3.07-1.171-4.242,0l-4.243,4.243
	L7.788,3.515c-1.171-1.171-3.071-1.171-4.243,0c-1.171,1.171-1.171,3.071,0,4.243L7.788,12l-4.243,4.242
	c-1.171,1.172-1.17,3.072,0,4.243c1.171,1.171,3.072,1.171,4.243,0l4.243-4.242l4.242,4.242c1.172,1.171,3.072,1.171,4.243,0
	S21.688,17.414,20.517,16.243z"/>
</svg>
