<svg version="1.1" id="Layer_1" xmlns="http://www.w3.org/2000/svg" x="0px" y="0px"
     width="24px" height="24px" viewBox="0 0 24 24" enable-background="new 0 0 24 24"
     xml:space="preserve">
<path d="M13.25,22H2.75C1.233,22,0,20.743,0,19.199V4.8C0,3.256,1.233,2,2.75,2h10.5C14.767,2,16,3.256,16,4.8V7
	c0,0.552-0.447,1-1,1s-1-0.448-1-1V4.8C14,4.359,13.663,4,13.25,4H2.75C2.336,4,2,4.359,2,4.8v14.399C2,19.641,2.336,20,2.75,20
	h10.5c0.413,0,0.75-0.359,0.75-0.801V17c0-0.553,0.447-1,1-1s1,0.447,1,1v2.199C16,20.743,14.767,22,13.25,22z"/>
<path d="M24,12l-6-5v3.5h-8c-0.829,0-1.5,0.671-1.5,1.5c0,0.828,0.671,1.5,1.5,1.5h8V17L24,12z"/>
</svg>
