<?xml version="1.0" encoding="utf-8"?>
<!-- Generator: Adobe Illustrator 16.0.3, SVG Export Plug-In . SVG Version: 6.00 Build 0)  -->
<!DOCTYPE svg PUBLIC "-//W3C//DTD SVG 1.1//EN" "http://www.w3.org/Graphics/SVG/1.1/DTD/svg11.dtd">
<svg version="1.1" id="Layer_1" xmlns="http://www.w3.org/2000/svg" xmlns:xlink="http://www.w3.org/1999/xlink" x="0px" y="0px"
	 width="24px" height="24px" viewBox="0 0 24 24" enable-background="new 0 0 24 24" xml:space="preserve">
<path d="M19.286,22.794c-0.029,0.107-0.121,0.186-0.23,0.202c-0.109,0.018-0.218-0.031-0.281-0.122
	c-0.555-0.832-1.592-2.39-1.592-2.39c-1.51,0.931-3.281,1.479-5.182,1.479c-4.934,0-9.042-3.607-9.827-8.322
	c-0.064-0.405,0.054-0.819,0.32-1.131c0.267-0.313,0.657-0.493,1.068-0.493C3.574,12,3.587,12,3.598,12
	c0.699,0,1.294,0.507,1.406,1.196c0.554,3.358,3.481,5.921,6.997,5.921c1.319,0,2.542-0.376,3.596-1.009
	c0,0-1.285-1.929-1.879-2.819c-0.059-0.087-0.063-0.199-0.014-0.292s0.146-0.15,0.252-0.15c1.529,0,5.913,0,7.23,0
	c0.088,0,0.174,0.041,0.227,0.113c0.053,0.071,0.07,0.164,0.046,0.249C21.077,16.538,19.759,21.147,19.286,22.794z M20.403,12
	c-0.699,0-1.295-0.507-1.404-1.197C18.442,7.446,15.515,4.884,12,4.884c-1.319,0-2.542,0.375-3.596,1.007
	c0,0,1.285,1.929,1.879,2.819c0.059,0.087,0.064,0.199,0.014,0.292c-0.049,0.093-0.146,0.15-0.252,0.15c-1.527,0-5.912,0-7.229,0
	c-0.09,0-0.175-0.041-0.228-0.113c-0.055-0.071-0.071-0.164-0.046-0.25c0.381-1.329,1.699-5.937,2.172-7.585
	c0.031-0.107,0.121-0.186,0.23-0.203c0.108-0.017,0.219,0.031,0.28,0.123c0.556,0.833,1.593,2.39,1.593,2.39
	C8.328,2.586,10.1,2.038,12,2.038c4.934,0,9.043,3.605,9.827,8.321c0.064,0.405-0.055,0.819-0.32,1.131
	c-0.268,0.313-0.656,0.493-1.068,0.493C20.428,12,20.415,12,20.403,12z"/>
</svg>
