<svg version="1.1" id="Layer_1" xmlns="http://www.w3.org/2000/svg" xmlns:xlink="http://www.w3.org/1999/xlink" x="0px" y="0px"
	 width="24px" height="24px" viewBox="0 0 24 24" enable-background="new 0 0 24 24" xml:space="preserve">
<path d="M22.414,19.586c0,0-4.737-4.715-4.82-4.776C18.479,13.417,19,11.77,19,10c0-4.962-4.038-9-9-9s-9,4.038-9,9s4.038,9,9,9
	c1.77,0,3.417-0.521,4.81-1.406c0.061,0.083,4.776,4.82,4.776,4.82C19.976,22.805,20.488,23,21,23s1.024-0.195,1.414-0.586
	C23.195,21.633,23.195,20.367,22.414,19.586z M10,15c-2.757,0-5-2.243-5-5s2.243-5,5-5s5,2.243,5,5S12.757,15,10,15z"/>
</svg>
