<?xml version="1.0" encoding="utf-8"?>
<!-- Generator: Adobe Illustrator 16.0.3, SVG Export Plug-In . SVG Version: 6.00 Build 0)  -->
<!DOCTYPE svg PUBLIC "-//W3C//DTD SVG 1.1//EN" "http://www.w3.org/Graphics/SVG/1.1/DTD/svg11.dtd">
<svg version="1.1" id="Layer_1" xmlns="http://www.w3.org/2000/svg" xmlns:xlink="http://www.w3.org/1999/xlink" x="0px" y="0px"
	 width="24px" height="24px" viewBox="0 0 24 24" enable-background="new 0 0 24 24" xml:space="preserve">
<path d="M18,23H6c-1.104,0-2-0.896-2-2V7h16v14C20,22.104,19.104,23,18,23 M10,11c0-0.552-0.448-1-1-1s-1,0.448-1,1v7
	c0,0.553,0.448,1,1,1s1-0.447,1-1V11z M16,11c0-0.552-0.447-1-1-1s-1,0.448-1,1v7c0,0.553,0.447,1,1,1s1-0.447,1-1V11z M21,6H3V4h5
	V2.5C8,1.673,8.673,1,9.5,1h5C15.325,1,16,1.671,16,2.5V4h5V6z M10,4h4V3h-4V4z"/>
</svg>
